<?xml version="1.0" encoding="utf-8"?>
<!-- Generator: Adobe Illustrator 26.5.0, SVG Export Plug-In . SVG Version: 6.00 Build 0)  -->
<svg version="1.1" xmlns="http://www.w3.org/2000/svg" xmlns:xlink="http://www.w3.org/1999/xlink" x="0px" y="0px"
	 viewBox="0 0 2100 2100" style="enable-background:new 0 0 2100 2100;" xml:space="preserve">
<style type="text/css">
	.st0{display:none;}
	.st1{display:inline;fill:#FFFFFF;}
	.st2{fill:#40F478;}
	.st3{fill:#F24153;}
	.st4{fill:#F5EEEC;}
	.st5{fill:#01232B;}
</style>
<g id="Background" class="st0">
	<rect class="st1" width="2100" height="2100"/>
</g>
<g id="OBJECT_00000014602043775493765980000015445295037462778793_">
	<g>
		<g>
			<path class="st2" d="M1452.6,159.42L1452.6,159.42c-33.67-2.75-66.24,12.74-85.36,40.59l-141.63,206.33
				c-7.15,10.42-18.97,16.64-31.61,16.64h0c-25.73,0-44.15-24.84-36.69-49.46l31.18-102.78c26.85-88.51-12.32-183.69-93.69-227.67
				l0,0c-27.96-15.11-61.65-15.11-89.61,0l0,0c-81.37,43.98-120.54,139.16-93.69,227.67l31.18,102.78
				c7.47,24.62-10.96,49.46-36.69,49.46h0c-12.63,0-24.46-6.22-31.61-16.64L732.75,200.02c-19.12-27.85-51.69-43.34-85.36-40.59h0
				c-34.95,2.85-65.42,24.87-79.1,57.16v0c-20.73,48.92-8.64,105.58,30.25,141.78l230.48,214.52h441.94l230.48-214.52
				c38.89-36.2,50.98-92.86,30.25-141.78v0C1518.02,184.3,1487.55,162.28,1452.6,159.42z"/>
			<path class="st3" d="M1336.8,695.81H763.2c-22.65,0-41.02-18.36-41.02-41.02v-40.9c0-22.65,18.36-41.02,41.02-41.02h573.59
				c22.65,0,41.02,18.36,41.02,41.02v40.9C1377.81,677.45,1359.45,695.81,1336.8,695.81z"/>
			<path class="st3" d="M1336.8,818.74H763.2c-22.65,0-41.02-18.36-41.02-41.02v-40.9c0-22.65,18.36-41.02,41.02-41.02h573.59
				c22.65,0,41.02,18.36,41.02,41.02v40.9C1377.81,800.38,1359.45,818.74,1336.8,818.74z"/>
			<path class="st2" d="M1249.39,818.74H850.61l-398.25,452.97c-76.99,87.57-119.45,200.18-119.45,316.78v0
				c0,264.97,214.8,479.77,479.77,479.77h474.64c264.97,0,479.77-214.8,479.77-479.77v0c0-116.6-42.46-229.21-119.45-316.78
				L1249.39,818.74z"/>
			<circle class="st4" cx="1050" cy="1535.57" r="327.81"/>
		</g>
		<g>
			<path class="st5" d="M1670.72,1251.42l-353.41-401.97c50.39-0.52,91.24-41.66,91.24-92.17c0-23.59-8.91-45.14-23.53-61.46
				c14.63-16.32,23.53-37.87,23.53-61.46c0-41.05-26.97-75.9-64.11-87.81l177.95-165.63c48.18-44.84,63.29-115.67,37.62-176.27
				c-18.2-42.96-58.4-72-104.9-75.8c-44.47-3.63-87.9,16.99-113.19,53.83L1200.28,389c-1.42,2.07-3.76,3.3-6.27,3.3
				c-3.17,0-5.07-1.67-6.11-3.07c-1.04-1.4-2.09-3.71-1.17-6.74l31.18-102.78c30.96-102.05-14.67-212.92-108.48-263.63
				c-37.21-20.11-81.63-20.11-118.84,0C896.77,66.79,851.14,177.66,882.1,279.71l31.18,102.78c0.92,3.03-0.13,5.34-1.17,6.74
				c-1.04,1.4-2.94,3.07-6.11,3.07c-2.51,0-4.85-1.23-6.27-3.3L758.09,182.67c-25.29-36.83-68.6-57.48-113.2-53.83
				c-46.5,3.8-86.69,32.84-104.89,75.8c-25.67,60.59-10.56,131.43,37.61,176.27l177.95,165.63c-37.14,11.91-64.11,46.76-64.11,87.81
				c0,23.59,8.91,45.14,23.53,61.46c-14.63,16.32-23.53,37.87-23.53,61.46c0,50.52,40.84,91.65,91.24,92.17l-353.41,401.97
				c-81.97,93.23-127.1,212.94-127.1,337.08c0,281.49,229.01,510.5,510.5,510.5h474.64c281.49,0,510.5-229.01,510.5-510.5
				C1797.82,1464.36,1752.68,1344.66,1670.72,1251.42z M596.59,228.62c9.25-21.83,29.68-36.59,53.3-38.52
				c22.64-1.85,44.67,8.63,57.52,27.35l141.63,206.33c12.89,18.77,34.18,29.98,56.95,29.98c22.09,0,42.31-10.18,55.47-27.92
				c13.16-17.75,17.03-40.05,10.62-61.2l-31.18-102.78c-22.51-74.21,10.67-154.84,78.9-191.72c18.9-10.21,41.48-10.22,60.38,0
				c68.22,36.87,101.41,117.5,78.9,191.71l-31.18,102.78c-6.41,21.14-2.54,43.45,10.62,61.19c13.16,17.75,33.38,27.92,55.47,27.92
				c22.77,0,44.06-11.21,56.95-29.98l141.63-206.33c12.85-18.72,34.87-29.2,57.52-27.35c23.63,1.93,44.05,16.69,53.31,38.52
				c15.63,36.88,6.43,80-22.9,107.3l-221.57,206.23H841.06L619.49,335.92C590.17,308.62,580.97,265.51,596.59,228.62z
				 M783.65,603.62h532.7c16.95,0,30.73,13.79,30.73,30.73c0,16.95-13.79,30.73-30.73,30.73c-0.01,0-0.03,0-0.04,0H783.69
				c-0.01,0-0.03,0-0.04,0c-16.95,0-30.73-13.79-30.73-30.73C752.92,617.4,766.71,603.62,783.65,603.62z M752.92,757.28
				c0-16.95,13.79-30.73,30.73-30.73v0h532.7v0c16.95,0,30.73,13.79,30.73,30.73c0,16.95-13.79,30.73-30.73,30.73h-532.7
				C766.71,788.01,752.92,774.22,752.92,757.28z M1287.32,2037.54H812.68c-247.6,0-449.04-201.44-449.04-449.04
				c0-109.19,39.7-214.48,111.8-296.49l389.07-442.53h108.45c-7.67,28.59-30.57,72.74-98.36,104.42
				c-15.37,7.19-22.02,25.48-14.83,40.85c5.22,11.17,16.3,17.73,27.86,17.73c4.36,0,8.78-0.93,12.99-2.9
				c100.49-46.97,127.9-118.42,135.1-160.1h28.52c7.2,41.68,34.61,113.13,135.1,160.1c4.21,1.97,8.64,2.9,12.99,2.9
				c11.56,0,22.64-6.56,27.86-17.73c7.19-15.38,0.54-33.67-14.83-40.85c-67.78-31.68-90.69-75.83-98.36-104.42h108.45l389.07,442.53
				c72.1,82.01,111.8,187.3,111.8,296.49C1736.36,1836.1,1534.92,2037.54,1287.32,2037.54z"/>
			<path class="st5" d="M1050,1177.03c-197.7,0-358.54,160.84-358.54,358.54S852.3,1894.12,1050,1894.12
				s358.54-160.84,358.54-358.54S1247.7,1177.03,1050,1177.03z M1050,1832.65c-163.81,0-297.08-133.27-297.08-297.08
				s133.27-297.08,297.08-297.08s297.08,133.27,297.08,297.08S1213.81,1832.65,1050,1832.65z"/>
			<path class="st5" d="M1082.63,1504.84h-65.25c-15.9,0-28.84-13.79-28.84-30.73s12.94-30.73,28.84-30.73h106.38
				c16.97,0,30.73-13.76,30.73-30.73c0-16.97-13.76-30.73-30.73-30.73h-4.61v-30.73c0-16.97-13.76-30.73-30.73-30.73
				s-30.73,13.76-30.73,30.73v30.73h-15.37v-30.73c0-16.97-13.76-30.73-30.73-30.73c-16.97,0-30.73,13.76-30.73,30.73v38.64
				c-31.64,14.35-53.78,46.72-53.78,84.29c0,50.84,40.51,92.2,90.3,92.2h65.25c15.9,0,28.84,13.79,28.84,30.73
				c0,16.95-12.94,30.73-28.84,30.73H976.24c-16.97,0-30.73,13.76-30.73,30.73c0,16.97,13.76,30.73,30.73,30.73h4.61v30.73
				c0,16.97,13.76,30.73,30.73,30.73c16.97,0,30.73-13.76,30.73-30.73v-30.73h15.37v30.73c0,16.97,13.76,30.73,30.73,30.73
				s30.73-13.76,30.73-30.73v-38.64c31.64-14.35,53.78-46.72,53.78-84.29C1172.93,1546.2,1132.42,1504.84,1082.63,1504.84z"/>
		</g>
	</g>
</g>
</svg>
