<?xml version="1.0" encoding="utf-8"?>
<!-- Generator: Adobe Illustrator 26.5.0, SVG Export Plug-In . SVG Version: 6.00 Build 0)  -->
<svg version="1.1" id="Camada_1" xmlns="http://www.w3.org/2000/svg" xmlns:xlink="http://www.w3.org/1999/xlink" x="0px" y="0px"
	 viewBox="0 0 2100 2100" style="enable-background:new 0 0 2100 2100;" xml:space="preserve">
<style type="text/css">
	.st0{display:none;}
	.st1{display:inline;fill:#FFFFFF;}
	.st2{display:inline;}
	.st3{fill:#40F478;}
	.st4{fill:#F24153;}
	.st5{fill:#F5EEEC;}
	.st6{fill:#01232B;}
	.st7{fill:#009569;}
</style>
<g id="Background" class="st0">
	<rect y="0" class="st1" width="2100" height="2100"/>
</g>
<g id="OBJECT_00000014602043775493765980000015445295037462778793_" class="st0">
	<g class="st2">
		<g>
			<path class="st3" d="M1452.6,159.4L1452.6,159.4c-33.7-2.8-66.2,12.7-85.4,40.6l-141.6,206.3c-7.2,10.4-19,16.6-31.6,16.6l0,0
				c-25.7,0-44.2-24.8-36.7-49.5l31.2-102.8c26.8-88.5-12.3-183.7-93.7-227.7l0,0c-28-15.1-61.7-15.1-89.6,0l0,0
				c-81.4,44-120.5,139.2-93.7,227.7l31.2,102.8c7.5,24.6-11,49.5-36.7,49.5l0,0c-12.6,0-24.5-6.2-31.6-16.6L732.8,200
				c-19.1-27.9-51.7-43.3-85.4-40.6l0,0c-35,2.9-65.4,24.9-79.1,57.2l0,0c-20.7,48.9-8.6,105.6,30.2,141.8L829,572.9h442
				l230.5-214.5c38.9-36.2,51-92.9,30.2-141.8l0,0C1518,184.3,1487.6,162.3,1452.6,159.4z"/>
			<path class="st4" d="M1336.8,695.8H763.2c-22.7,0-41-18.4-41-41v-40.9c0-22.7,18.4-41,41-41h573.6c22.7,0,41,18.4,41,41v40.9
				C1377.8,677.5,1359.4,695.8,1336.8,695.8z"/>
			<path class="st4" d="M1336.8,818.7H763.2c-22.7,0-41-18.4-41-41v-40.9c0-22.7,18.4-41,41-41h573.6c22.7,0,41,18.4,41,41v40.9
				C1377.8,800.4,1359.4,818.7,1336.8,818.7z"/>
			<path class="st3" d="M1249.4,818.7H850.6l-398.2,453c-77,87.6-119.5,200.2-119.5,316.8l0,0c0,265,214.8,479.8,479.8,479.8h474.6
				c265,0,479.8-214.8,479.8-479.8l0,0c0-116.6-42.5-229.2-119.4-316.8L1249.4,818.7z"/>
			<circle class="st5" cx="1050" cy="1535.6" r="327.8"/>
		</g>
		<g>
			<path class="st6" d="M1670.7,1251.4l-353.4-402c50.4-0.5,91.2-41.7,91.2-92.2c0-23.6-8.9-45.1-23.5-61.5
				c14.6-16.3,23.5-37.9,23.5-61.5c0-41-27-75.9-64.1-87.8l177.9-165.6c48.2-44.8,63.3-115.7,37.6-176.3
				c-18.2-43-58.4-72-104.9-75.8c-44.5-3.6-87.9,17-113.2,53.8L1200.3,389c-1.4,2.1-3.8,3.3-6.3,3.3c-3.2,0-5.1-1.7-6.1-3.1
				s-2.1-3.7-1.2-6.7l31.2-102.8c31-102.1-14.7-212.9-108.5-263.6c-37.2-20.1-81.6-20.1-118.8,0c-93.8,50.7-139.5,161.6-108.5,263.6
				l31.2,102.8c0.9,3-0.1,5.3-1.2,6.7s-2.9,3.1-6.1,3.1c-2.5,0-4.8-1.2-6.3-3.3L758.1,182.7c-25.3-36.8-68.6-57.5-113.2-53.8
				c-46.5,3.8-86.7,32.8-104.9,75.8c-25.7,60.6-10.6,131.4,37.6,176.3l178,165.6c-37.1,11.9-64.1,46.8-64.1,87.8
				c0,23.6,8.9,45.1,23.5,61.5c-14.6,16.3-23.5,37.9-23.5,61.5c0,50.5,40.8,91.7,91.2,92.2l-353.4,402
				c-82,93.2-127.1,212.9-127.1,337.1c0,281.5,229,510.5,510.5,510.5h474.6c281.5,0,510.5-229,510.5-510.5
				C1797.8,1464.4,1752.7,1344.7,1670.7,1251.4z M596.6,228.6c9.2-21.8,29.7-36.6,53.3-38.5c22.6-1.9,44.7,8.6,57.5,27.4L849,423.8
				c12.9,18.8,34.2,30,57,30c22.1,0,42.3-10.2,55.5-27.9c13.2-17.8,17-40,10.6-61.2l-31.2-102.8c-22.5-74.2,10.7-154.8,78.9-191.7
				c18.9-10.2,41.5-10.2,60.4,0c68.2,36.9,101.4,117.5,78.9,191.7l-31.2,102.8c-6.4,21.1-2.5,43.5,10.6,61.2
				c13.2,17.8,33.4,27.9,55.5,27.9c22.8,0,44.1-11.2,56.9-30l141.6-206.3c12.8-18.7,34.9-29.2,57.5-27.4
				c23.6,1.9,44.1,16.7,53.3,38.5c15.6,36.9,6.4,80-22.9,107.3l-221.6,206.2H841.1L619.5,335.9C590.2,308.6,581,265.5,596.6,228.6z
				 M783.7,603.6h532.7c16.9,0,30.7,13.8,30.7,30.7c0,17-13.8,30.7-30.7,30.7l0,0H783.7l0,0c-17,0-30.7-13.8-30.7-30.7
				C752.9,617.4,766.7,603.6,783.7,603.6z M752.9,757.3c0-17,13.8-30.7,30.7-30.7l0,0h532.7l0,0c16.9,0,30.7,13.8,30.7,30.7
				c0,17-13.8,30.7-30.7,30.7H783.6C766.7,788,752.9,774.2,752.9,757.3z M1287.3,2037.5H812.7c-247.6,0-449-201.4-449-449
				c0-109.2,39.7-214.5,111.8-296.5l389.1-442.5H973c-7.7,28.6-30.6,72.7-98.4,104.4c-15.4,7.2-22,25.5-14.8,40.8
				c5.2,11.2,16.3,17.7,27.9,17.7c4.4,0,8.8-0.9,13-2.9c100.5-47,127.9-118.4,135.1-160.1h28.5c7.2,41.7,34.6,113.1,135.1,160.1
				c4.2,2,8.6,2.9,13,2.9c11.6,0,22.6-6.6,27.9-17.7c7.2-15.4,0.5-33.7-14.8-40.8c-67.8-31.7-90.7-75.8-98.4-104.4h108.4
				l389.1,442.5c72.1,82,111.8,187.3,111.8,296.5C1736.4,1836.1,1534.9,2037.5,1287.3,2037.5z"/>
			<circle class="st5" cx="1050" cy="1535.6" r="327.8"/>
			<path class="st6" d="M1050,1177c-197.7,0-358.5,160.8-358.5,358.5S852.3,1894,1050,1894s358.5-160.8,358.5-358.5
				S1247.7,1177,1050,1177z M1050,1832.7c-163.8,0-297.1-133.3-297.1-297.1s133.3-297.1,297.1-297.1s297.1,133.3,297.1,297.1
				S1213.8,1832.7,1050,1832.7z"/>
			<path class="st6" d="M1082.6,1504.8h-65.2c-15.9,0-28.8-13.8-28.8-30.7s12.9-30.7,28.8-30.7h106.4c17,0,30.7-13.8,30.7-30.7
				s-13.8-30.7-30.7-30.7h-4.6v-30.7c0-17-13.8-30.7-30.7-30.7s-30.7,13.8-30.7,30.7v30.7h-15.4v-30.7c0-17-13.8-30.7-30.7-30.7
				s-30.7,13.8-30.7,30.7v38.6c-31.6,14.3-53.8,46.7-53.8,84.3c0,50.8,40.5,92.2,90.3,92.2h65.3c15.9,0,28.8,13.8,28.8,30.7
				c0,16.9-12.9,30.7-28.8,30.7H976.2c-17,0-30.7,13.8-30.7,30.7s13.8,30.7,30.7,30.7h4.6v30.7c0,17,13.8,30.7,30.7,30.7
				s30.7-13.8,30.7-30.7v-30.7h15.4v30.7c0,17,13.8,30.7,30.7,30.7s30.7-13.8,30.7-30.7v-38.6c31.6-14.3,53.8-46.7,53.8-84.3
				C1172.9,1546.2,1132.4,1504.8,1082.6,1504.8z"/>
		</g>
	</g>
</g>
<g>
	<circle class="st7" cx="1050" cy="1050" r="960"/>
	<path class="st5" d="M1050,0C471,0,0,471,0,1050s471,1050,1050,1050s1050-471,1050-1050S1629,0,1050,0z M1050,1920
		c-479.7,0-870-390.3-870-870s390.3-870,870-870s870,390.3,870,870S1529.7,1920,1050,1920z"/>
	<path class="st5" d="M1145.6,960H954.5c-46.6,0-84.5-40.4-84.5-90s37.9-90,84.5-90H1266c49.7,0,90-40.3,90-90s-40.3-90-90-90h-13.5
		v-90c0-49.7-40.3-90-90-90s-90,40.3-90,90v90h-45v-90c0-49.7-40.3-90-90-90s-90,40.3-90,90v113.2C754.9,665.2,690,760,690,870
		c0,148.9,118.6,270,264.4,270h191.1c46.6,0,84.5,40.4,84.5,90s-37.9,90-84.5,90H834c-49.7,0-90,40.3-90,90s40.3,90,90,90h13.5v90
		c0,49.7,40.3,90,90,90s90-40.3,90-90v-90h45v90c0,49.7,40.3,90,90,90s90-40.3,90-90v-113.2c92.7-42,157.5-136.8,157.5-246.8
		C1410,1081.1,1291.4,960,1145.6,960z"/>
</g>
</svg>
